<svg width="785" height="171" viewBox="0 0 785 171" fill="none" xmlns="http://www.w3.org/2000/svg">

<path d="M36.4788 156.804C110.468 133.093 214.876 107.568 311.177 86.4837C268.301 96.046 206.293 110.441 146.859 126.022C75.2609 144.791 37.9436 156.369 13.2329 165.542C-12.761 175.191 56.2856 160.543 112.292 148.332C182.338 133.061 403.125 79.7059 455.471 67.4341C497.308 57.6259 513.645 54.5688 504.178 57.2217C480.598 63.8292 461.799 68.2352 420.998 79.516C400.234 85.2569 390.731 87.5485 373.835 92.7477C356.939 97.9469 380.586 93.6663 431.457 82.4292C465.738 74.8568 574.329 50.3158 607.811 43.6092C645.12 36.1361 677.414 32.5105 723.327 24.5123C746.722 20.4369 763.3 17.3846 772.678 15.6145C774.139 15.3296 775.605 15.0423 777.078 14.7524C784.583 13.275 782.949 13.6758 772.678 15.6145C731.384 23.665 694.679 29.72 658.839 35.218C620.251 41.1373 615.563 42.6105 583.086 49.3898C525.774 61.353 431.639 83.4118 395.375 91.1739C365.792 97.5061 352.779 98.007 372.724 92.0713C401.874 83.3961 446.404 72.0519 479.546 63.5043C512.688 54.9568 500.573 57.0876 446.064 70.211C325.441 99.2514 165.92 137.903 66.6495 159.017C21.7864 168.559 -30.2525 178.189 36.4788 156.804Z" fill="#fff" fill-opacity="0.5"/>

</svg>
