<svg width="509" height="146" viewBox="0 0 509 146" fill="none" xmlns="http://www.w3.org/2000/svg">
<rect x="23.5" y="2.5" width="107" height="109" rx="18.5" stroke="white" stroke-width="5"/>
<path d="M2.5 29C2.5 14.3627 14.3505 2.5 28.9843 2.5H29.1234H29.2627H29.4023H29.5422H29.6823H29.8228H29.9634H30.1044H30.2456H30.387H30.5287H30.6707H30.813H30.9555H31.0982H31.2412H31.3845H31.5281H31.6719H31.8159H31.9602H32.1048H32.2496H32.3947H32.54H32.6856H32.8315H32.9776H33.1239H33.2705H33.4174H33.5645H33.7118H33.8595H34.0073H34.1554H34.3038H34.4524H34.6012H34.7503H34.8997H35.0493H35.1991H35.3492H35.4995H35.6501H35.8009H35.952H36.1033H36.2549H36.4067H36.5587H36.711H36.8635H37.0162H37.1692H37.3225H37.4759H37.6296H37.7836H37.9378H38.0922H38.2469H38.4017H38.5569H38.7122H38.8678H39.0237H39.1797H39.336H39.4926H39.6493H39.8063H39.9635H40.121H40.2787H40.4366H40.5947H40.7531H40.9117H41.0705H41.2296H41.3888H41.5483H41.7081H41.868H42.0282H42.1886H42.3492H42.5101H42.6711H42.8324H42.9939H43.1557H43.3176H43.4798H43.6422H43.8048H43.9676H44.1307H44.2939H44.4574H44.6211H44.785H44.9492H45.1135H45.2781H45.4428H45.6078H45.773H45.9384H46.104H46.2699H46.4359H46.6022H46.7686H46.9353H47.1022H47.2693H47.4366H47.6041H47.7718H47.9397H48.1078H48.2761H48.4447H48.6134H48.7824H48.9515H49.1209H49.2904H49.4602H49.6301H49.8003H49.9706H50.1412H50.3119H50.4829H50.654H50.8254H50.9969H51.1687H51.3406H51.5127H51.6851H51.8576H52.0303H52.2032H52.3763H52.5496H52.7231H52.8968H53.0707H53.2448H53.419H53.5935H53.7681H53.9429H54.1179H54.2931H54.4685H54.6441H54.8199H54.9958H55.172H55.3483H55.5248H55.7015H55.8783H56.0554H56.2326H56.4101H56.5877H56.7654H56.9434H57.1215H57.2999H57.4784H57.657H57.8359H58.0149H58.1941H58.3735H58.5531H58.7328H58.9128H59.0928H59.2731H59.4535H59.6341H59.8149H59.9959H60.177H60.3583H60.5398H60.7214H60.9032H61.0852H61.2673H61.4497H61.6321H61.8148H61.9976H62.1806H62.3637H62.547H62.7305H62.9141H63.0979H63.2819H63.466H63.6503H63.8348H64.0194H64.2042H64.3891H64.5742H64.7595H64.9449H65.1304H65.3162H65.502H65.6881H65.8743H66.0606H66.2471H66.4338H66.6206H66.8076H66.9947H67.182H67.3694H67.557H67.7447H67.9326H68.1207H68.3088H68.4972H68.6856H68.8743H69.063H69.252H69.441H69.6303H69.8196H70.0091H70.1988H70.3886H70.5785H70.7686H70.9588H71.1492H71.3397H71.5303H71.7211H71.9121H72.1031H72.2943H72.4857H72.6772H72.8688H73.0606H73.2525H73.4445H73.6367H73.829H74.0214H74.214H74.4067H74.5996H74.7925H74.9856H75.1789H75.3723H75.5658H75.7594H75.9531H76.147H76.3411H76.5352H76.7295H76.9239H77.1184H77.3131H77.5079H77.7028H77.8978H78.093H78.2882H78.4836H78.6792H78.8748H79.0706H79.2665H79.4625H79.6586H79.8549H80.0513H80.2477H80.4444H80.6411H80.8379H81.0349H81.232H81.4292H81.6265H81.8239H82.0214H82.2191H82.4169H82.6147H82.8127H83.0108H83.2091H83.4074H83.6058H83.8044H84.003H84.2018H84.4007H84.5996H84.7987H84.9979H85.1972H85.3966H85.5962H85.7958H85.9955H86.1953H86.3953H86.5953H86.7954H86.9957H87.196H87.3965H87.597H87.7976H87.9984H88.1992H88.4002H88.6012H88.8023H89.0036H89.2049H89.4063H89.6078H89.8094H90.0111H90.213H90.4148H90.6168H90.8189H91.0211H91.2234H91.4257H91.6282H91.8307H92.0333H92.236H92.4388H92.6417H92.8447H93.0478H93.2509H93.4542H93.6575H93.8609H94.0644H94.268H94.4716H94.6754H94.8792H95.0831H95.2871H95.4912H95.6954H95.8996H96.1039H96.3083H96.5128H96.7173H96.9219H97.1266H97.3314H97.5363H97.7412H97.9462H98.1513H98.3565H98.5617H98.767H98.9724H99.1778H99.3833H99.5889H99.7946H100H100.206H100.412H100.618H100.824H101.03H101.236H101.442H101.649H101.855H102.061H102.268H102.474H102.681H102.888H103.094H103.301H103.508H103.715H103.922H104.129H104.336H104.543H104.75H104.958H105.165H105.372H105.58H105.787H105.995H106.202H106.41H106.618H106.826H107.033H107.241H107.449H107.657H107.865H108.073H108.281H108.49H108.698H108.906H109.114H109.323H109.531H109.74H109.948H110.157H110.365H110.574H110.783H110.992H111.2H111.409H111.618H111.827H112.036H112.245H112.454H112.663H112.872H113.081H113.29H113.5H113.709H113.918H114.128H114.337H114.546H114.756H114.965H115.175H115.384H115.594H115.804H116.013H116.223H116.433H116.642H116.852H117.062H117.272H117.482H117.691H117.901H118.111H118.321H118.531H118.741H118.951H119.161H119.371H119.582H119.792H120.002H120.212H120.422H120.632H120.843H121.053H121.263H121.474H121.684H121.894H122.105H122.315H122.525H122.736H122.946H123.157H123.367H123.577H123.788H123.998C138.634 2.5 150.5 14.3646 150.5 29V117C150.5 131.636 138.636 143.5 124 143.5H29C14.3645 143.5 2.5 131.636 2.5 117V29Z" stroke="white" stroke-width="5"/>
<line x1="122.22" y1="108.851" x2="137.026" y2="137.447" stroke="white" stroke-width="5"/>
<line x1="122.22" y1="108.851" x2="137.026" y2="137.447" stroke="white" stroke-width="5"/>
<line x1="122.22" y1="108.851" x2="137.026" y2="137.447" stroke="white" stroke-width="5"/>
<line x1="31.7763" y1="110.129" x2="17.2304" y2="138.859" stroke="white" stroke-width="5"/>
<line x1="31.7763" y1="110.129" x2="17.2304" y2="138.859" stroke="white" stroke-width="5"/>
<line x1="31.7763" y1="110.129" x2="17.2304" y2="138.859" stroke="white" stroke-width="5"/>
<line x1="25.0633" y1="101.412" x2="6.06329" y2="129.182" stroke="white" stroke-width="5"/>
<line x1="25.0633" y1="101.412" x2="6.06329" y2="129.182" stroke="white" stroke-width="5"/>
<line x1="25.0633" y1="101.412" x2="6.06329" y2="129.182" stroke="white" stroke-width="5"/>
<line x1="129.024" y1="101.533" x2="147.926" y2="127.604" stroke="white" stroke-width="5"/>
<line x1="129.024" y1="101.533" x2="147.926" y2="127.604" stroke="white" stroke-width="5"/>
<line x1="129.024" y1="101.533" x2="147.926" y2="127.604" stroke="white" stroke-width="5"/>
<path d="M83.6875 60.4375V64.4102H65.248L65.002 61.334L75.6719 44.4062H79.6973L75.3379 51.7012L70.0293 60.4375H83.6875ZM80.7871 44.4062V70H75.7246V44.4062H80.7871Z" fill="white"/>
<rect x="201.5" y="2.5" width="107" height="109" rx="18.5" stroke="white" stroke-width="5"/>
<path d="M180.5 29C180.5 14.3627 192.351 2.5 206.984 2.5H207.123H207.263H207.402H207.542H207.682H207.823H207.963H208.104H208.246H208.387H208.529H208.671H208.813H208.955H209.098H209.241H209.385H209.528H209.672H209.816H209.96H210.105H210.25H210.395H210.54H210.686H210.831H210.978H211.124H211.271H211.417H211.564H211.712H211.859H212.007H212.155H212.304H212.452H212.601H212.75H212.9H213.049H213.199H213.349H213.5H213.65H213.801H213.952H214.103H214.255H214.407H214.559H214.711H214.863H215.016H215.169H215.322H215.476H215.63H215.784H215.938H216.092H216.247H216.402H216.557H216.712H216.868H217.024H217.18H217.336H217.493H217.649H217.806H217.964H218.121H218.279H218.437H218.595H218.753H218.912H219.071H219.23H219.389H219.548H219.708H219.868H220.028H220.189H220.349H220.51H220.671H220.832H220.994H221.156H221.318H221.48H221.642H221.805H221.968H222.131H222.294H222.457H222.621H222.785H222.949H223.113H223.278H223.443H223.608H223.773H223.938H224.104H224.27H224.436H224.602H224.769H224.935H225.102H225.269H225.437H225.604H225.772H225.94H226.108H226.276H226.445H226.613H226.782H226.952H227.121H227.29H227.46H227.63H227.8H227.971H228.141H228.312H228.483H228.654H228.825H228.997H229.169H229.341H229.513H229.685H229.858H230.03H230.203H230.376H230.55H230.723H230.897H231.071H231.245H231.419H231.593H231.768H231.943H232.118H232.293H232.469H232.644H232.82H232.996H233.172H233.348H233.525H233.701H233.878H234.055H234.233H234.41H234.588H234.765H234.943H235.122H235.3H235.478H235.657H235.836H236.015H236.194H236.374H236.553H236.733H236.913H237.093H237.273H237.454H237.634H237.815H237.996H238.177H238.358H238.54H238.721H238.903H239.085H239.267H239.45H239.632H239.815H239.998H240.181H240.364H240.547H240.731H240.914H241.098H241.282H241.466H241.65H241.835H242.019H242.204H242.389H242.574H242.759H242.945H243.13H243.316H243.502H243.688H243.874H244.061H244.247H244.434H244.621H244.808H244.995H245.182H245.369H245.557H245.745H245.933H246.121H246.309H246.497H246.686H246.874H247.063H247.252H247.441H247.63H247.82H248.009H248.199H248.389H248.579H248.769H248.959H249.149H249.34H249.53H249.721H249.912H250.103H250.294H250.486H250.677H250.869H251.061H251.252H251.445H251.637H251.829H252.021H252.214H252.407H252.6H252.793H252.986H253.179H253.372H253.566H253.759H253.953H254.147H254.341H254.535H254.729H254.924H255.118H255.313H255.508H255.703H255.898H256.093H256.288H256.484H256.679H256.875H257.071H257.266H257.463H257.659H257.855H258.051H258.248H258.444H258.641H258.838H259.035H259.232H259.429H259.626H259.824H260.021H260.219H260.417H260.615H260.813H261.011H261.209H261.407H261.606H261.804H262.003H262.202H262.401H262.6H262.799H262.998H263.197H263.397H263.596H263.796H263.996H264.195H264.395H264.595H264.795H264.996H265.196H265.396H265.597H265.798H265.998H266.199H266.4H266.601H266.802H267.004H267.205H267.406H267.608H267.809H268.011H268.213H268.415H268.617H268.819H269.021H269.223H269.426H269.628H269.831H270.033H270.236H270.439H270.642H270.845H271.048H271.251H271.454H271.658H271.861H272.064H272.268H272.472H272.675H272.879H273.083H273.287H273.491H273.695H273.9H274.104H274.308H274.513H274.717H274.922H275.127H275.331H275.536H275.741H275.946H276.151H276.356H276.562H276.767H276.972H277.178H277.383H277.589H277.795H278H278.206H278.412H278.618H278.824H279.03H279.236H279.442H279.649H279.855H280.061H280.268H280.474H280.681H280.888H281.094H281.301H281.508H281.715H281.922H282.129H282.336H282.543H282.75H282.958H283.165H283.372H283.58H283.787H283.995H284.202H284.41H284.618H284.826H285.033H285.241H285.449H285.657H285.865H286.073H286.281H286.49H286.698H286.906H287.114H287.323H287.531H287.74H287.948H288.157H288.365H288.574H288.783H288.992H289.2H289.409H289.618H289.827H290.036H290.245H290.454H290.663H290.872H291.081H291.29H291.5H291.709H291.918H292.128H292.337H292.546H292.756H292.965H293.175H293.384H293.594H293.804H294.013H294.223H294.433H294.642H294.852H295.062H295.272H295.482H295.691H295.901H296.111H296.321H296.531H296.741H296.951H297.161H297.371H297.582H297.792H298.002H298.212H298.422H298.632H298.843H299.053H299.263H299.474H299.684H299.894H300.105H300.315H300.525H300.736H300.946H301.157H301.367H301.577H301.788H301.998C316.634 2.5 328.5 14.3646 328.5 29V117C328.5 131.636 316.636 143.5 302 143.5H207C192.364 143.5 180.5 131.636 180.5 117V29Z" stroke="white" stroke-width="5"/>
<line x1="300.22" y1="108.851" x2="315.026" y2="137.447" stroke="white" stroke-width="5"/>
<line x1="300.22" y1="108.851" x2="315.026" y2="137.447" stroke="white" stroke-width="5"/>
<line x1="300.22" y1="108.851" x2="315.026" y2="137.447" stroke="white" stroke-width="5"/>
<line x1="209.776" y1="110.129" x2="195.23" y2="138.859" stroke="white" stroke-width="5"/>
<line x1="209.776" y1="110.129" x2="195.23" y2="138.859" stroke="white" stroke-width="5"/>
<line x1="209.776" y1="110.129" x2="195.23" y2="138.859" stroke="white" stroke-width="5"/>
<line x1="203.063" y1="101.412" x2="184.063" y2="129.182" stroke="white" stroke-width="5"/>
<line x1="203.063" y1="101.412" x2="184.063" y2="129.182" stroke="white" stroke-width="5"/>
<line x1="203.063" y1="101.412" x2="184.063" y2="129.182" stroke="white" stroke-width="5"/>
<line x1="307.024" y1="101.533" x2="325.926" y2="127.604" stroke="white" stroke-width="5"/>
<line x1="307.024" y1="101.533" x2="325.926" y2="127.604" stroke="white" stroke-width="5"/>
<line x1="307.024" y1="101.533" x2="325.926" y2="127.604" stroke="white" stroke-width="5"/>
<path d="M260.984 54.9531V59.3828C260.984 61.3047 260.779 62.9629 260.369 64.3574C259.959 65.7402 259.367 66.877 258.594 67.7676C257.832 68.6465 256.924 69.2969 255.869 69.7188C254.814 70.1406 253.643 70.3516 252.354 70.3516C251.322 70.3516 250.361 70.2227 249.471 69.9648C248.58 69.6953 247.777 69.2793 247.062 68.7168C246.359 68.1543 245.75 67.4453 245.234 66.5898C244.73 65.7227 244.344 64.6914 244.074 63.4961C243.805 62.3008 243.67 60.9297 243.67 59.3828V54.9531C243.67 53.0312 243.875 51.3848 244.285 50.0137C244.707 48.6309 245.299 47.5 246.061 46.6211C246.834 45.7422 247.748 45.0977 248.803 44.6875C249.857 44.2656 251.029 44.0547 252.318 44.0547C253.35 44.0547 254.305 44.1895 255.184 44.459C256.074 44.7168 256.877 45.1211 257.592 45.6719C258.307 46.2227 258.916 46.9316 259.42 47.7988C259.924 48.6543 260.311 49.6797 260.58 50.875C260.85 52.0586 260.984 53.418 260.984 54.9531ZM255.904 60.0508V54.2676C255.904 53.3418 255.852 52.5332 255.746 51.8418C255.652 51.1504 255.506 50.5645 255.307 50.084C255.107 49.5918 254.861 49.1934 254.568 48.8887C254.275 48.584 253.941 48.3613 253.566 48.2207C253.191 48.0801 252.775 48.0098 252.318 48.0098C251.744 48.0098 251.234 48.1211 250.789 48.3438C250.355 48.5664 249.986 48.9238 249.682 49.416C249.377 49.8965 249.143 50.541 248.979 51.3496C248.826 52.1465 248.75 53.1191 248.75 54.2676V60.0508C248.75 60.9766 248.797 61.791 248.891 62.4941C248.996 63.1973 249.148 63.8008 249.348 64.3047C249.559 64.7969 249.805 65.2012 250.086 65.5176C250.379 65.8223 250.713 66.0449 251.088 66.1855C251.475 66.3262 251.896 66.3965 252.354 66.3965C252.916 66.3965 253.414 66.2852 253.848 66.0625C254.293 65.8281 254.668 65.4648 254.973 64.9727C255.289 64.4688 255.523 63.8125 255.676 63.0039C255.828 62.1953 255.904 61.2109 255.904 60.0508Z" fill="white"/>
<rect x="379.5" y="2.5" width="107" height="109" rx="18.5" stroke="white" stroke-width="5"/>
<path d="M358.5 29C358.5 14.3627 370.351 2.5 384.984 2.5H385.123H385.263H385.402H385.542H385.682H385.823H385.963H386.104H386.246H386.387H386.529H386.671H386.813H386.955H387.098H387.241H387.385H387.528H387.672H387.816H387.96H388.105H388.25H388.395H388.54H388.686H388.831H388.978H389.124H389.271H389.417H389.564H389.712H389.859H390.007H390.155H390.304H390.452H390.601H390.75H390.9H391.049H391.199H391.349H391.5H391.65H391.801H391.952H392.103H392.255H392.407H392.559H392.711H392.863H393.016H393.169H393.322H393.476H393.63H393.784H393.938H394.092H394.247H394.402H394.557H394.712H394.868H395.024H395.18H395.336H395.493H395.649H395.806H395.964H396.121H396.279H396.437H396.595H396.753H396.912H397.071H397.23H397.389H397.548H397.708H397.868H398.028H398.189H398.349H398.51H398.671H398.832H398.994H399.156H399.318H399.48H399.642H399.805H399.968H400.131H400.294H400.457H400.621H400.785H400.949H401.113H401.278H401.443H401.608H401.773H401.938H402.104H402.27H402.436H402.602H402.769H402.935H403.102H403.269H403.437H403.604H403.772H403.94H404.108H404.276H404.445H404.613H404.782H404.952H405.121H405.29H405.46H405.63H405.8H405.971H406.141H406.312H406.483H406.654H406.825H406.997H407.169H407.341H407.513H407.685H407.858H408.03H408.203H408.376H408.55H408.723H408.897H409.071H409.245H409.419H409.593H409.768H409.943H410.118H410.293H410.469H410.644H410.82H410.996H411.172H411.348H411.525H411.701H411.878H412.055H412.233H412.41H412.588H412.765H412.943H413.122H413.3H413.478H413.657H413.836H414.015H414.194H414.374H414.553H414.733H414.913H415.093H415.273H415.454H415.634H415.815H415.996H416.177H416.358H416.54H416.721H416.903H417.085H417.267H417.45H417.632H417.815H417.998H418.181H418.364H418.547H418.731H418.914H419.098H419.282H419.466H419.65H419.835H420.019H420.204H420.389H420.574H420.759H420.945H421.13H421.316H421.502H421.688H421.874H422.061H422.247H422.434H422.621H422.808H422.995H423.182H423.369H423.557H423.745H423.933H424.121H424.309H424.497H424.686H424.874H425.063H425.252H425.441H425.63H425.82H426.009H426.199H426.389H426.579H426.769H426.959H427.149H427.34H427.53H427.721H427.912H428.103H428.294H428.486H428.677H428.869H429.061H429.252H429.445H429.637H429.829H430.021H430.214H430.407H430.6H430.793H430.986H431.179H431.372H431.566H431.759H431.953H432.147H432.341H432.535H432.729H432.924H433.118H433.313H433.508H433.703H433.898H434.093H434.288H434.484H434.679H434.875H435.071H435.266H435.463H435.659H435.855H436.051H436.248H436.444H436.641H436.838H437.035H437.232H437.429H437.626H437.824H438.021H438.219H438.417H438.615H438.813H439.011H439.209H439.407H439.606H439.804H440.003H440.202H440.401H440.6H440.799H440.998H441.197H441.397H441.596H441.796H441.996H442.195H442.395H442.595H442.795H442.996H443.196H443.396H443.597H443.798H443.998H444.199H444.4H444.601H444.802H445.004H445.205H445.406H445.608H445.809H446.011H446.213H446.415H446.617H446.819H447.021H447.223H447.426H447.628H447.831H448.033H448.236H448.439H448.642H448.845H449.048H449.251H449.454H449.658H449.861H450.064H450.268H450.472H450.675H450.879H451.083H451.287H451.491H451.695H451.9H452.104H452.308H452.513H452.717H452.922H453.127H453.331H453.536H453.741H453.946H454.151H454.356H454.562H454.767H454.972H455.178H455.383H455.589H455.795H456H456.206H456.412H456.618H456.824H457.03H457.236H457.442H457.649H457.855H458.061H458.268H458.474H458.681H458.888H459.094H459.301H459.508H459.715H459.922H460.129H460.336H460.543H460.75H460.958H461.165H461.372H461.58H461.787H461.995H462.202H462.41H462.618H462.826H463.033H463.241H463.449H463.657H463.865H464.073H464.281H464.49H464.698H464.906H465.114H465.323H465.531H465.74H465.948H466.157H466.365H466.574H466.783H466.992H467.2H467.409H467.618H467.827H468.036H468.245H468.454H468.663H468.872H469.081H469.29H469.5H469.709H469.918H470.128H470.337H470.546H470.756H470.965H471.175H471.384H471.594H471.804H472.013H472.223H472.433H472.642H472.852H473.062H473.272H473.482H473.691H473.901H474.111H474.321H474.531H474.741H474.951H475.161H475.371H475.582H475.792H476.002H476.212H476.422H476.632H476.843H477.053H477.263H477.474H477.684H477.894H478.105H478.315H478.525H478.736H478.946H479.157H479.367H479.577H479.788H479.998C494.634 2.5 506.5 14.3646 506.5 29V117C506.5 131.636 494.636 143.5 480 143.5H385C370.364 143.5 358.5 131.636 358.5 117V29Z" stroke="white" stroke-width="5"/>
<line x1="478.22" y1="108.851" x2="493.026" y2="137.447" stroke="white" stroke-width="5"/>
<line x1="478.22" y1="108.851" x2="493.026" y2="137.447" stroke="white" stroke-width="5"/>
<line x1="478.22" y1="108.851" x2="493.026" y2="137.447" stroke="white" stroke-width="5"/>
<line x1="387.776" y1="110.129" x2="373.23" y2="138.859" stroke="white" stroke-width="5"/>
<line x1="387.776" y1="110.129" x2="373.23" y2="138.859" stroke="white" stroke-width="5"/>
<line x1="387.776" y1="110.129" x2="373.23" y2="138.859" stroke="white" stroke-width="5"/>
<line x1="381.063" y1="101.412" x2="362.063" y2="129.182" stroke="white" stroke-width="5"/>
<line x1="381.063" y1="101.412" x2="362.063" y2="129.182" stroke="white" stroke-width="5"/>
<line x1="381.063" y1="101.412" x2="362.063" y2="129.182" stroke="white" stroke-width="5"/>
<line x1="485.024" y1="101.533" x2="503.926" y2="127.604" stroke="white" stroke-width="5"/>
<line x1="485.024" y1="101.533" x2="503.926" y2="127.604" stroke="white" stroke-width="5"/>
<line x1="485.024" y1="101.533" x2="503.926" y2="127.604" stroke="white" stroke-width="5"/>
<path d="M439.688 60.4375V64.4102H421.248L421.002 61.334L431.672 44.4062H435.697L431.338 51.7012L426.029 60.4375H439.688ZM436.787 44.4062V70H431.725V44.4062H436.787Z" fill="white"/>
</svg>
